<svg width="30" height="30" viewBox="0 0 30 30" fill="none" xmlns="http://www.w3.org/2000/svg">
<path d="M3.95508 10.752H26.0449M3.95508 11.6016H26.0449M7.35352 17.5488H14.1504M7.35352 20.0977H10.752M6.50391 23.4961H23.4961C24.1721 23.4961 24.8204 23.2276 25.2984 22.7496C25.7764 22.2716 26.0449 21.6233 26.0449 20.9473V9.05273C26.0449 8.37674 25.7764 7.72844 25.2984 7.25044C24.8204 6.77244 24.1721 6.50391 23.4961 6.50391H6.50391C5.82791 6.50391 5.17961 6.77244 4.70161 7.25044C4.22361 7.72844 3.95508 8.37674 3.95508 9.05273V20.9473C3.95508 21.6233 4.22361 22.2716 4.70161 22.7496C5.17961 23.2276 5.82791 23.4961 6.50391 23.4961Z" stroke="currentColor" stroke-width="2" stroke-linecap="round" stroke-linejoin="round"/>
</svg>
