<svg width="30" height="30" viewBox="0 0 30 30" fill="none" xmlns="http://www.w3.org/2000/svg">
<path d="M19.248 8.20312C19.248 9.32978 18.8005 10.4103 18.0038 11.2069C17.2072 12.0036 16.1266 12.4512 15 12.4512C13.8733 12.4512 12.7928 12.0036 11.9962 11.2069C11.1995 10.4103 10.7519 9.32978 10.7519 8.20312C10.7519 7.07647 11.1995 5.99597 11.9962 5.1993C12.7928 4.40264 13.8733 3.95508 15 3.95508C16.1266 3.95508 17.2072 4.40264 18.0038 5.1993C18.8005 5.99597 19.248 7.07647 19.248 8.20312ZM6.50504 24.1962C6.54144 21.9672 7.45245 19.8418 9.0416 18.2784C10.6308 16.715 12.7707 15.8388 15 15.8388C17.2293 15.8388 19.3692 16.715 20.9584 18.2784C22.5475 19.8418 23.4586 21.9672 23.495 24.1962C20.8299 25.4182 17.9319 26.0489 15 26.0449C11.9686 26.0449 9.09125 25.3834 6.50504 24.1962Z" stroke="currentColor" stroke-width="2" stroke-linecap="round" stroke-linejoin="round"/>
</svg>
