<svg width="30" height="30" viewBox="0 0 30 30" fill="none" xmlns="http://www.w3.org/2000/svg">
<path d="M13.3008 8.20312H24.3457M13.3008 8.20312C13.3008 8.65379 13.1218 9.08599 12.8031 9.40465C12.4844 9.72332 12.0522 9.90234 11.6016 9.90234C11.1509 9.90234 10.7187 9.72332 10.4 9.40465C10.0814 9.08599 9.90234 8.65379 9.90234 8.20312M13.3008 8.20312C13.3008 7.75246 13.1218 7.32026 12.8031 7.0016C12.4844 6.68293 12.0522 6.50391 11.6016 6.50391C11.1509 6.50391 10.7187 6.68293 10.4 7.0016C10.0814 7.32026 9.90234 7.75246 9.90234 8.20312M9.90234 8.20312H5.6543M13.3008 21.7969H24.3457M13.3008 21.7969C13.3008 22.2475 13.1218 22.6797 12.8031 22.9984C12.4844 23.3171 12.0522 23.4961 11.6016 23.4961C11.1509 23.4961 10.7187 23.3171 10.4 22.9984C10.0814 22.6797 9.90234 22.2475 9.90234 21.7969M13.3008 21.7969C13.3008 21.3462 13.1218 20.914 12.8031 20.5953C12.4844 20.2767 12.0522 20.0977 11.6016 20.0977C11.1509 20.0977 10.7187 20.2767 10.4 20.5953C10.0814 20.914 9.90234 21.3462 9.90234 21.7969M9.90234 21.7969H5.6543M20.0977 15H24.3457M20.0977 15C20.0977 15.4507 19.9186 15.8829 19.6 16.2015C19.2813 16.5202 18.8491 16.6992 18.3984 16.6992C17.9478 16.6992 17.5156 16.5202 17.1969 16.2015C16.8782 15.8829 16.6992 15.4507 16.6992 15M20.0977 15C20.0977 14.5493 19.9186 14.1171 19.6 13.7985C19.2813 13.4798 18.8491 13.3008 18.3984 13.3008C17.9478 13.3008 17.5156 13.4798 17.1969 13.7985C16.8782 14.1171 16.6992 14.5493 16.6992 15M16.6992 15H5.6543" stroke="#8A2BE2" stroke-width="2" stroke-linecap="round" stroke-linejoin="round"/>
</svg>
