<svg width="30" height="30" viewBox="0 0 30 30" fill="none" xmlns="http://www.w3.org/2000/svg">
<path d="M11.1768 15C11.1768 15.1127 11.132 15.2207 11.0523 15.3004C10.9727 15.38 10.8646 15.4248 10.752 15.4248C10.6393 15.4248 10.5312 15.38 10.4516 15.3004C10.3719 15.2207 10.3271 15.1127 10.3271 15C10.3271 14.8873 10.3719 14.7793 10.4516 14.6996C10.5312 14.62 10.6393 14.5752 10.752 14.5752C10.8646 14.5752 10.9727 14.62 11.0523 14.6996C11.132 14.7793 11.1768 14.8873 11.1768 15ZM11.1768 15H10.752M15.4248 15C15.4248 15.1127 15.38 15.2207 15.3004 15.3004C15.2207 15.38 15.1127 15.4248 15 15.4248C14.8873 15.4248 14.7793 15.38 14.6996 15.3004C14.62 15.2207 14.5752 15.1127 14.5752 15C14.5752 14.8873 14.62 14.7793 14.6996 14.6996C14.7793 14.62 14.8873 14.5752 15 14.5752C15.1127 14.5752 15.2207 14.62 15.3004 14.6996C15.38 14.7793 15.4248 14.8873 15.4248 15ZM15.4248 15H15M19.6729 15C19.6729 15.1127 19.6281 15.2207 19.5484 15.3004C19.4688 15.38 19.3607 15.4248 19.248 15.4248C19.1354 15.4248 19.0273 15.38 18.9477 15.3004C18.868 15.2207 18.8232 15.1127 18.8232 15C18.8232 14.8873 18.868 14.7793 18.9477 14.6996C19.0273 14.62 19.1354 14.5752 19.248 14.5752C19.3607 14.5752 19.4688 14.62 19.5484 14.6996C19.6281 14.7793 19.6729 14.8873 19.6729 15ZM19.6729 15H19.248M25.1953 15C25.1953 20.1611 20.6301 24.3457 15 24.3457C14.0226 24.3469 13.0493 24.2185 12.1057 23.9639C10.7755 24.8995 9.15279 25.3246 7.53477 25.1613C7.35487 25.144 7.17574 25.1194 6.99781 25.0877C7.55614 24.4297 7.93745 23.6402 8.1057 22.7938C8.20766 22.2761 7.95504 21.7731 7.57668 21.4049C5.8582 19.7329 4.80469 17.4797 4.80469 15C4.80469 9.83891 9.36992 5.6543 15 5.6543C20.6301 5.6543 25.1953 9.83891 25.1953 15Z" stroke="#8A2BE2" stroke-width="2" stroke-linecap="round" stroke-linejoin="round"/>
</svg>
