<svg width="30" height="30" viewBox="0 0 30 30" fill="none" xmlns="http://www.w3.org/2000/svg">
<path d="M19.248 11.6016V7.35352C19.248 6.67752 18.9795 6.02922 18.5015 5.55122C18.0235 5.07322 17.3752 4.80469 16.6992 4.80469H9.90234C9.22635 4.80469 8.57805 5.07322 8.10005 5.55122C7.62205 6.02922 7.35352 6.67752 7.35352 7.35352V22.6465C7.35352 23.3225 7.62205 23.9708 8.10005 24.4488C8.57805 24.9268 9.22635 25.1953 9.90234 25.1953H16.6992C17.3752 25.1953 18.0235 24.9268 18.5015 24.4488C18.9795 23.9708 19.248 23.3225 19.248 22.6465V18.3984M22.6465 18.3984L26.0449 15M26.0449 15L22.6465 11.6016M26.0449 15H11.6016" stroke="#8A2BE2" stroke-width="2" stroke-linecap="round" stroke-linejoin="round"/>
</svg>
