<svg width="30" height="30" viewBox="0 0 30 30" fill="none" xmlns="http://www.w3.org/2000/svg">
<path d="M25.1953 25.1952L19.3081 19.308M19.3081 19.308C20.0971 18.519 20.7229 17.5824 21.1499 16.5516C21.5769 15.5207 21.7966 14.4159 21.7966 13.3001C21.7966 12.1844 21.5769 11.0795 21.1499 10.0487C20.7229 9.01785 20.0971 8.08122 19.3081 7.29225C18.5191 6.50329 17.5825 5.87745 16.5517 5.45046C15.5208 5.02348 14.416 4.80371 13.3002 4.80371C12.1845 4.80371 11.0796 5.02348 10.0488 5.45046C9.01795 5.87745 8.08131 6.50329 7.29234 7.29225C5.69896 8.88564 4.8038 11.0467 4.8038 13.3001C4.8038 15.5535 5.69896 17.7146 7.29234 19.308C8.88573 20.9014 11.0468 21.7965 13.3002 21.7965C15.5536 21.7965 17.7147 20.9014 19.3081 19.308Z" stroke="#8A2BE2" stroke-width="2" stroke-linecap="round" stroke-linejoin="round"/>
</svg>
