<svg width="30" height="30" viewBox="0 0 30 30" fill="none" xmlns="http://www.w3.org/2000/svg">
<path d="M20.5077 6.48922L22.4188 4.57703C22.616 4.37977 22.8502 4.22329 23.108 4.11654C23.3657 4.00978 23.6419 3.95483 23.9209 3.95483C24.1999 3.95483 24.4761 4.00978 24.7338 4.11654C24.9916 4.22329 25.2257 4.37977 25.423 4.57703C25.6203 4.77429 25.7767 5.00847 25.8835 5.2662C25.9903 5.52393 26.0452 5.80017 26.0452 6.07914C26.0452 6.3581 25.9903 6.63434 25.8835 6.89207C25.7767 7.14981 25.6203 7.38399 25.423 7.58125L9.14562 23.8586C8.54673 24.4572 7.80819 24.8971 6.99668 25.1387L3.95508 26.045L4.86133 23.0034C5.10293 22.1918 5.54287 21.4533 6.14141 20.8544L20.5077 6.48922ZM20.5077 6.48922L23.4961 9.47757" stroke="#8A2BE2" stroke-width="2" stroke-linecap="round" stroke-linejoin="round"/>
</svg>
