<svg width="30" height="30" viewBox="0 0 30 30" fill="none" xmlns="http://www.w3.org/2000/svg">
<path d="M12.2744 5.86953C12.3764 5.25555 12.9088 4.80469 13.5319 4.80469H16.4692C17.0923 4.80469 17.6247 5.25555 17.7267 5.86953L17.968 7.32066C18.0393 7.74434 18.3225 8.09777 18.6986 8.30621C18.7824 8.35152 18.8651 8.40023 18.9478 8.45008C19.316 8.67211 19.7635 8.74121 20.1656 8.59055L21.5442 8.07398C21.8268 7.96773 22.1378 7.96521 22.422 8.06686C22.7062 8.16851 22.9451 8.36774 23.0962 8.62906L24.5643 11.1745C24.715 11.4358 24.7682 11.7422 24.7142 12.039C24.6603 12.3359 24.5028 12.6039 24.2698 12.7955L23.1336 13.7324C22.8017 14.0054 22.6374 14.4268 22.6465 14.8561C22.6481 14.9524 22.6481 15.0487 22.6465 15.145C22.6374 15.5732 22.8017 15.9946 23.1336 16.2676L24.2709 17.2045C24.7512 17.6009 24.8758 18.2863 24.5655 18.8244L23.0951 21.3698C22.9442 21.6311 22.7056 21.8304 22.4216 21.9322C22.1376 22.0341 21.8267 22.0319 21.5442 21.926L20.1656 21.4095C19.7635 21.2588 19.316 21.3279 18.9467 21.5499C18.8646 21.5999 18.7815 21.6482 18.6975 21.6949C18.3225 21.9022 18.0393 22.2557 17.968 22.6793L17.7267 24.1305C17.6247 24.7456 17.0923 25.1953 16.4692 25.1953H13.5307C12.9077 25.1953 12.3764 24.7445 12.2733 24.1305L12.032 22.6793C11.9618 22.2557 11.6786 21.9022 11.3025 21.6938C11.2185 21.6475 11.1354 21.5995 11.0533 21.5499C10.6851 21.3279 10.2376 21.2588 9.83436 21.4095L8.45573 21.926C8.17335 22.032 7.86255 22.0343 7.57859 21.9327C7.29463 21.8311 7.05592 21.632 6.90491 21.3709L5.43565 18.8255C5.28492 18.5642 5.2318 18.2578 5.28573 17.961C5.33966 17.6641 5.49715 17.3961 5.73018 17.2045L6.86752 16.2676C7.19831 15.9957 7.36256 15.5732 7.35463 15.145C7.35286 15.0487 7.35286 14.9524 7.35463 14.8561C7.36256 14.4257 7.19831 14.0054 6.86752 13.7324L5.73018 12.7955C5.49743 12.604 5.34012 12.3361 5.2862 12.0395C5.23228 11.743 5.28523 11.4369 5.43565 11.1756L6.90491 8.6302C7.05578 8.36867 7.29461 8.16921 7.57883 8.06734C7.86305 7.96548 8.17421 7.96783 8.45686 8.07398L9.83436 8.59055C10.2376 8.74121 10.6851 8.67211 11.0533 8.45008C11.1348 8.40023 11.2187 8.35266 11.3025 8.30508C11.6786 8.09777 11.9618 7.74434 12.032 7.32066L12.2744 5.86953Z" stroke="#8A2BE2" stroke-width="2" stroke-linecap="round" stroke-linejoin="round"/>
<path d="M18.3984 15C18.3984 15.9013 18.0404 16.7657 17.4031 17.4031C16.7657 18.0404 15.9013 18.3984 15 18.3984C14.0987 18.3984 13.2343 18.0404 12.5969 17.4031C11.9596 16.7657 11.6016 15.9013 11.6016 15C11.6016 14.0987 11.9596 13.2343 12.5969 12.5969C13.2343 11.9596 14.0987 11.6016 15 11.6016C15.9013 11.6016 16.7657 11.9596 17.4031 12.5969C18.0404 13.2343 18.3984 14.0987 18.3984 15Z" stroke="#8A2BE2" stroke-width="2" stroke-linecap="round" stroke-linejoin="round"/>
</svg>
