<svg width="30" height="30" viewBox="0 0 30 30" fill="none" xmlns="http://www.w3.org/2000/svg">
<path d="M20.0977 8.20312V9.05273M20.0977 12.4512V13.3008M20.0977 16.6992V17.5488M20.0977 20.9473V21.7969M9.90234 15.8496H15.8496M9.90234 18.3984H13.3008M5.22949 7.35352C4.52602 7.35352 3.95508 7.92445 3.95508 8.62793V12.0558C4.47249 12.3537 4.90225 12.7827 5.20108 13.2996C5.49991 13.8165 5.65725 14.403 5.65725 15C5.65725 15.597 5.49991 16.1835 5.20108 16.7004C4.90225 17.2173 4.47249 17.6463 3.95508 17.9442V21.3721C3.95508 22.0755 4.52602 22.6465 5.22949 22.6465H24.7705C25.474 22.6465 26.0449 22.0755 26.0449 21.3721V17.9442C25.5275 17.6463 25.0978 17.2173 24.7989 16.7004C24.5001 16.1835 24.3428 15.597 24.3428 15C24.3428 14.403 24.5001 13.8165 24.7989 13.2996C25.0978 12.7827 25.5275 12.3537 26.0449 12.0558V8.62793C26.0449 7.92445 25.474 7.35352 24.7705 7.35352H5.22949Z" stroke="currentColor" stroke-width="2" stroke-linecap="round" stroke-linejoin="round"/>
</svg>
